<svg viewBox="0 0 25 24" fill="none" xmlns="http://www.w3.org/2000/svg"><path d="M12.016 13.92c-.93 0-1.754.46-2.256 1.166a.65.65 0 11-1.06-.752 4.062 4.062 0 013.316-1.714c1.37 0 2.581.678 3.317 1.714a.65.65 0 11-1.06.752 2.762 2.762 0 00-2.257-1.166zM14.266 9.37a.75.75 0 110 1.5.75.75 0 010-1.5zM10.516 10.12a.75.75 0 10-1.5 0 .75.75 0 001.5 0z" fill="#717681"/><path fill-rule="evenodd" clip-rule="evenodd" d="M21.016 12a9 9 0 11-18 0 9 9 0 0118 0zm-1.3 0a7.7 7.7 0 11-15.4 0 7.7 7.7 0 0115.4 0z" fill="#717681"/></svg>