<svg viewBox="0 0 24 24" fill="none" xmlns="http://www.w3.org/2000/svg"><path d="M17.32 10.52a6.193 6.193 0 01-5.62 8.788 6.187 6.187 0 01-6.189-6.19c0-3.419 2.778-6.18 6.19-6.18.11 0 .218.003.326.009l-1.166 1.091a.66.66 0 00-.21.48c0 .16.05.31.18.42.25.26.66.28.92.03l2.35-2.19c.3-.27.3-.74 0-1.02l-2.35-2.19a.65.65 0 00-.92.03.65.65 0 00.03.92l1.206 1.13a7.594 7.594 0 00-.366-.01c-4.127 0-7.49 3.34-7.49 7.48a7.487 7.487 0 007.49 7.49 7.493 7.493 0 006.801-10.631.65.65 0 10-1.181.543z" fill="#717681"/></svg>