<svg viewBox="0 0 24 24" fill="none" xmlns="http://www.w3.org/2000/svg"><path d="M6.082 10.52a6.193 6.193 0 005.62 8.788 6.187 6.187 0 006.19-6.19c0-3.419-2.778-6.18-6.19-6.18-.11 0-.219.003-.327.009l1.166 1.091c.14.13.21.31.21.48 0 .16-.05.31-.18.42a.65.65 0 01-.92.03l-2.35-2.19a.69.69 0 010-1.02l2.35-2.19a.65.65 0 01.92.03c.25.26.23.67-.03.92l-1.205 1.13a7.59 7.59 0 01.365-.01c4.128 0 7.49 3.34 7.49 7.48a7.487 7.487 0 01-7.49 7.49 7.493 7.493 0 01-6.8-10.631.65.65 0 111.181.543z" fill="#717681"/></svg>